HIERARCHY
ROOT hip
{
  OFFSET 0 0 0
  CHANNELS 6 Xposition Yposition Zposition Zrotation Yrotation Xrotation
  JOINT abdomen
  {
    OFFSET 0 20.6881 -0.73152
    CHANNELS 3 Zrotation Xrotation Yrotation
    JOINT chest
    {
      OFFSET 0 11.7043 -0.48768
      CHANNELS 3 Zrotation Xrotation Yrotation
      JOINT neck
      {
        OFFSET 0 22.1894 -2.19456
        CHANNELS 3 Zrotation Xrotation Yrotation
        JOINT head
        {
          OFFSET -0.24384 7.07133 1.2192
          CHANNELS 3 Zrotation Xrotation Yrotation
          JOINT leftEye
          {
            OFFSET 4.14528 8.04674 8.04672
            CHANNELS 3 Zrotation Xrotation Yrotation
            End Site
            {
              OFFSET 1 0 0
            }
          }
          JOINT rightEye
          {
            OFFSET -3.6576 8.04674 8.04672
            CHANNELS 3 Zrotation Xrotation Yrotation
            End Site
            {
              OFFSET 1 0 0
            }
          }
        }
      }
      JOINT rCollar
      {
        OFFSET -2.68224 19.2634 -4.8768
        CHANNELS 3 Zrotation Xrotation Yrotation
        JOINT rShldr
        {
          OFFSET -8.77824 -1.95073 1.46304
          CHANNELS 3 Zrotation Xrotation Yrotation
          JOINT rForeArm
          {
            OFFSET -28.1742 -1.7115 0.48768
            CHANNELS 3 Zrotation Xrotation Yrotation
            JOINT rHand
            {
              OFFSET -22.5879 0.773209 7.07136
              CHANNELS 3 Zrotation Xrotation Yrotation
              JOINT rThumb1
              {
                OFFSET -1.2192 -0.487915 3.41376
                CHANNELS 3 Zrotation Xrotation Yrotation
                JOINT rThumb2
                {
                  OFFSET -3.37035 -0.52449 3.41376
                  CHANNELS 3 Zrotation Xrotation Yrotation
                  End Site
                  {
                    OFFSET -1.78271 -1.18214 1.43049
                  }
                }
              }
              JOINT rIndex1
              {
                OFFSET -7.75947 0.938293 5.60832
                CHANNELS 3 Zrotation Xrotation Yrotation
                JOINT rIndex2
                {
                  OFFSET -2.54057 -0.884171 1.56538
                  CHANNELS 3 Zrotation Xrotation Yrotation
                  End Site
                  {
                    OFFSET -1.62519 -0.234802 1.16502
                  }
                }
              }
              JOINT rMid1
              {
                OFFSET -8.24714 1.18213 3.41376
                CHANNELS 3 Zrotation Xrotation Yrotation
                JOINT rMid2
                {
                  OFFSET -3.10165 -0.590103 1.0647
                  CHANNELS 3 Zrotation Xrotation Yrotation
                  End Site
                  {
                    OFFSET -2.48547 -0.328903 0.83742
                  }
                }
              }
              JOINT rRing1
              {
                OFFSET -8.82822 0.546677 1.51678
                CHANNELS 3 Zrotation Xrotation Yrotation
                JOINT rRing2
                {
                  OFFSET -2.60934 -0.819778 -0.0198488
                  CHANNELS 3 Zrotation Xrotation Yrotation
                  End Site
                  {
                    OFFSET -2.33842 -0.294052 0.168128
                  }
                }
              }
              JOINT rPinky1
              {
                OFFSET -8.27202 -0.0477905 -0.4584
                CHANNELS 3 Zrotation Xrotation Yrotation
                JOINT rPinky2
                {
                  OFFSET -1.82734 -0.647385 -0.700984
                  CHANNELS 3 Zrotation Xrotation Yrotation
                  End Site
                  {
                    OFFSET -1.69225 -0.51767 -0.607171
                  }
                }
              }
            }
          }
        }
      }
      JOINT lCollar
      {
        OFFSET 2.68224 19.2634 -4.8768
        CHANNELS 3 Zrotation Xrotation Yrotation
        JOINT lShldr
        {
          OFFSET 8.77824 -1.95073 1.46304
          CHANNELS 3 Zrotation Xrotation Yrotation
          JOINT lForeArm
          {
            OFFSET 28.1742 -1.7115 0.48768
            CHANNELS 3 Zrotation Xrotation Yrotation
            JOINT lHand
            {
              OFFSET 22.5879 0.773209 7.07136
              CHANNELS 3 Zrotation Xrotation Yrotation
              JOINT lThumb1
              {
                OFFSET 1.2192 -0.487915 3.41376
                CHANNELS 3 Zrotation Xrotation Yrotation
                JOINT lThumb2
                {
                  OFFSET 3.37035 -0.52449 3.41376
                  CHANNELS 3 Zrotation Xrotation Yrotation
                  End Site
                  {
                    OFFSET 1.78271 -1.18214 1.43049
                  }
                }
              }
              JOINT lIndex1
              {
                OFFSET 7.75947 0.938293 5.60832
                CHANNELS 3 Zrotation Xrotation Yrotation
                JOINT lIndex2
                {
                  OFFSET 2.54057 -0.884171 1.56538
                  CHANNELS 3 Zrotation Xrotation Yrotation
                  End Site
                  {
                    OFFSET 1.62519 -0.234802 1.16502
                  }
                }
              }
              JOINT lMid1
              {
                OFFSET 8.24714 1.18213 3.41376
                CHANNELS 3 Zrotation Xrotation Yrotation
                JOINT lMid2
                {
                  OFFSET 3.10165 -0.590103 1.0647
                  CHANNELS 3 Zrotation Xrotation Yrotation
                  End Site
                  {
                    OFFSET 2.48547 -0.328903 0.83742
                  }
                }
              }
              JOINT lRing1
              {
                OFFSET 8.82822 0.546677 1.51678
                CHANNELS 3 Zrotation Xrotation Yrotation
                JOINT lRing2
                {
                  OFFSET 2.60934 -0.819778 -0.0198488
                  CHANNELS 3 Zrotation Xrotation Yrotation
                  End Site
                  {
                    OFFSET 2.33842 -0.294052 0.168128
                  }
                }
              }
              JOINT lPinky1
              {
                OFFSET 8.27202 -0.0477905 -0.4584
                CHANNELS 3 Zrotation Xrotation Yrotation
                JOINT lPinky2
                {
                  OFFSET 1.82734 -0.647385 -0.700984
                  CHANNELS 3 Zrotation Xrotation Yrotation
                  End Site
                  {
                    OFFSET 1.69225 -0.51767 -0.607171
                  }
                }
              }
            }
          }
        }
      }
    }
  }
  JOINT rButtock
  {
    OFFSET -8.77824 4.35084 1.2192
    CHANNELS 3 Zrotation Xrotation Yrotation
    JOINT rThigh
    {
      OFFSET 0 -1.70687 -2.19456
      CHANNELS 3 Zrotation Xrotation Yrotation
      JOINT rShin
      {
        OFFSET 0 -36.8199 0.73152
        CHANNELS 3 Zrotation Xrotation Yrotation
        JOINT rFoot
        {
          OFFSET 0.73152 -45.1104 -5.12064
          CHANNELS 3 Zrotation Xrotation Yrotation
          End Site
          {
            OFFSET -1.1221 -3.69964 12.103
          }
        }
      }
    }
  }
  JOINT lButtock
  {
    OFFSET 8.77824 4.35084 1.2192
    CHANNELS 3 Zrotation Xrotation Yrotation
    JOINT lThigh
    {
      OFFSET 0 -1.70687 -2.19456
      CHANNELS 3 Zrotation Xrotation Yrotation
      JOINT lShin
      {
        OFFSET 0 -36.8199 0.73152
        CHANNELS 3 Zrotation Xrotation Yrotation
        JOINT lFoot
        {
          OFFSET -0.73152 -45.1104 -5.12064
          CHANNELS 3 Zrotation Xrotation Yrotation
          End Site
          {
            OFFSET 1.1221 -3.69964 12.103
          }
        }
      }
    }
  }
}
MOTION
Frames:	6
Frame Time:	0.00833333
0.198015 78.0281 100.861 183.791 -14.5374 -165.133 -12.1163 -24.5513 -10.4304 6.04957 15.7412 -3.05601 0.882105 21.3019 -9.17988 9.49938 -3.77397 -23.0088 -0.0 0.0 0.0 -0.0 0.0 0.0 -3.08692e-13 -3.55177e-13 -7.06117e-13 85.7818 3.03715 -18.7687 -13.9152 -6.88633 25.3836 0.000312754 -0.135351 -0.019023 4.89283e-09 -8.16085e-09 -3.42997e-10 8.46281e-09 -1.41267e-08 -6.09987e-10 4.89283e-09 -8.16085e-09 -3.43e-10 7.73091 5.47488 0.417314 4.89283e-09 -8.16085e-09 -3.4299e-10 2.90554 0.965183 0.102902 4.89284e-09 -8.16086e-09 -3.4299e-10 10.2786 0.731801 0.0259123 4.89283e-09 -8.16085e-09 -3.42976e-10 2.22167 -0.733487 -0.20892 -3.08654e-13 -3.55179e-13 -7.06344e-13 -67.3024 29.0029 5.48473 14.7276 -7.55736 -27.0286 0.00511135 -2.04257 0.287187 5.28882e-09 3.97225e-09 -2.70585e-09 9.13852e-09 6.87785e-09 -4.67953e-09 5.28882e-09 3.97225e-09 -2.70583e-09 -7.73091 5.47488 -0.417314 5.28883e-09 3.97225e-09 -2.70585e-09 -2.90554 0.965183 -0.102902 5.28882e-09 3.97225e-09 -2.70584e-09 -10.2786 0.731801 -0.0259123 5.28883e-09 3.97225e-09 -2.70585e-09 -2.22167 -0.733487 0.20892 -2.03217e-16 0.0 -3.88251e-19 -22.8097 -49.6354 0.455492 -0.0701221 11.4137 -0.242996 -2.29459 -5.00641 -23.1743 2.03217e-16 0.0 3.88251e-19 4.28863 -11.0025 -19.0067 0.123992 24.3544 -0.554562 -1.84062 -21.2055 -4.38525
0.422824 77.8685 100.37 183.936 -14.7943 -165.125 -12.2251 -24.6285 -10.6395 6.00884 15.8292 -3.1015 0.753749 21.2702 -9.1299 9.68443 -3.41267 -23.0606 -0.0 0.0 0.0 -0.0 0.0 0.0 -2.60668e-13 -2.94378e-13 -5.77841e-13 85.9722 3.35583 -19.02 -13.9669 -6.92782 25.4875 -0.000130821 -0.517691 -0.0727592 4.31582e-09 -6.80629e-09 -3.90789e-10 7.46379e-09 -1.17825e-08 -6.89523e-10 4.31583e-09 -6.80629e-09 -3.90792e-10 7.73091 5.47488 0.417314 4.31582e-09 -6.80629e-09 -3.90782e-10 2.90554 0.965183 0.102902 4.31583e-09 -6.80629e-09 -3.90783e-10 10.2786 0.731801 0.0259123 4.31582e-09 -6.80628e-09 -3.90769e-10 2.22167 -0.733487 -0.20892 -2.60627e-13 -2.94384e-13 -5.78112e-13 -67.0643 29.3521 5.59342 14.8975 -7.70241 -27.3769 0.00545681 -2.11014 0.296696 5.08445e-09 3.66804e-09 -1.90239e-09 8.78772e-09 6.35086e-09 -3.28861e-09 5.08445e-09 3.66805e-09 -1.90237e-09 -7.73091 5.47488 -0.417314 5.08446e-09 3.66805e-09 -1.90239e-09 -2.90554 0.965183 -0.102902 5.08445e-09 3.66804e-09 -1.90239e-09 -10.2786 0.731801 -0.0259123 5.08445e-09 3.66804e-09 -1.90239e-09 -2.22167 -0.733487 0.20892 -2.03217e-16 0.0 -3.88251e-19 -23.0802 -49.4304 0.0820768 -0.0711568 11.3316 -0.253712 -2.15527 -4.75059 -23.0906 2.03217e-16 0.0 3.88251e-19 4.68096 -10.6681 -19.0022 0.122625 24.3728 -0.567281 -1.87498 -21.3297 -4.38961
0.691392 77.7022 99.8219 184.224 -15.0086 -165.285 -12.2916 -24.6546 -10.8155 5.98268 15.9006 -3.1416 0.696112 21.2647 -9.10688 9.79065 -3.17339 -23.1131 -0.0 0.0 0.0 -0.0 0.0 0.0 -2.28429e-13 -2.282e-13 -4.04576e-13 86.1464 3.61859 -19.2732 -14.0185 -6.96946 25.5914 -0.000894153 -0.853809 -0.120004 3.801e-09 -4.83893e-09 -2.7826e-10 6.57168e-09 -8.37713e-09 -4.91461e-10 3.801e-09 -4.83893e-09 -2.78264e-10 7.73091 5.47488 0.417314 3.801e-09 -4.83893e-09 -2.78254e-10 2.90554 0.965183 0.102902 3.80101e-09 -4.83893e-09 -2.78256e-10 10.2786 0.731801 0.0259123 3.801e-09 -4.83893e-09 -2.78241e-10 2.22167 -0.733487 -0.20892 -2.28393e-13 -2.28209e-13 -4.04875e-13 -66.8253 29.6389 5.67014 15.0511 -7.83459 -27.6938 0.00567398 -2.15026 0.302342 4.58735e-09 3.28862e-09 -1.02479e-09 7.93002e-09 5.69326e-09 -1.76993e-09 4.58735e-09 3.28863e-09 -1.02477e-09 -7.73091 5.47488 -0.417314 4.58735e-09 3.28863e-09 -1.02479e-09 -2.90554 0.965183 -0.102902 4.58735e-09 3.28862e-09 -1.02479e-09 -10.2786 0.731801 -0.0259123 4.58735e-09 3.28862e-09 -1.02479e-09 -2.22167 -0.733487 0.20892 -2.03217e-16 0.0 -3.88251e-19 -23.2477 -49.2104 -0.195698 -0.0722429 11.2566 -0.264595 -2.0143 -4.48739 -23.0324 2.03217e-16 0.0 3.88251e-19 5.11591 -10.3349 -18.9941 0.121711 24.4022 -0.57799 -1.94017 -21.4472 -4.48037
1.01841 77.5515 99.213 184.796 -15.3313 -165.718 -12.2877 -24.6062 -10.9498 5.97662 15.9475 -3.17595 0.751085 21.2909 -9.124 9.76406 -3.11034 -23.165 -0.0 0.0 0.0 -0.0 0.0 0.0 -2.24487e-13 -1.45073e-13 -1.27994e-13 86.296 3.79243 -19.5325 -14.0701 -7.01124 25.6952 -0.0016024 -1.13029 -0.158872 3.40149e-09 -1.52911e-09 1.33783e-10 5.87744e-09 -2.64744e-09 2.25574e-10 3.40149e-09 -1.52911e-09 1.33778e-10 7.73091 5.47488 0.417314 3.40149e-09 -1.52911e-09 1.33788e-10 2.90554 0.965183 0.102902 3.4015e-09 -1.52911e-09 1.33787e-10 10.2786 0.731801 0.0259123 3.40149e-09 -1.52911e-09 1.33801e-10 2.22167 -0.733487 -0.20892 -2.24471e-13 -1.45089e-13 -1.28293e-13 -66.5824 29.8346 5.7018 15.1806 -7.94709 -27.9624 0.00557563 -2.12608 0.298941 3.58785e-09 2.79069e-09 1.23148e-10 6.20263e-09 4.82964e-09 2.15611e-10 3.58785e-09 2.79069e-09 1.23167e-10 -7.73091 5.47488 -0.417314 3.58786e-09 2.7907e-09 1.23144e-10 -2.90554 0.965183 -0.102902 3.58785e-09 2.79069e-09 1.23149e-10 -10.2786 0.731801 -0.0259123 3.58786e-09 2.79069e-09 1.23144e-10 -2.22167 -0.733487 0.20892 -2.03217e-16 0.0 -3.88251e-19 -23.2577 -48.9612 -0.330209 -0.0733673 11.1955 -0.27509 -1.8636 -4.19677 -23.0151 2.03217e-16 0.0 3.88251e-19 5.62546 -9.9984 -18.9799 0.121378 24.4462 -0.586099 -2.04439 -21.57 -4.67476
1.3024 77.4018 98.6505 185.105 -15.6915 -165.992 -12.2255 -24.5033 -11.0532 5.98223 15.9855 -3.20623 0.873807 21.3281 -9.16448 9.65425 -3.15816 -23.2102 -0.0 0.0 0.0 -0.0 0.0 0.0 -2.33062e-13 -3.84028e-14 2.35551e-13 86.43 3.92435 -19.7861 -14.1236 -7.05468 25.803 -0.00237556 -1.39089 -0.195514 2.99446e-09 2.91287e-09 7.31075e-10 5.16901e-09 5.04233e-09 1.26405e-09 2.99446e-09 2.91287e-09 7.31066e-10 7.73091 5.47488 0.417314 2.99446e-09 2.91287e-09 7.31076e-10 2.90554 0.965183 0.102902 2.99446e-09 2.91287e-09 7.31076e-10 10.2786 0.731801 0.0259123 2.99446e-09 2.91287e-09 7.3109e-10 2.22167 -0.733487 -0.20892 -2.33075e-13 -3.84271e-14 2.35268e-13 -66.33 29.9743 5.69002 15.2936 -8.04639 -28.1966 0.00526397 -2.05642 0.289139 2.16748e-09 2.1738e-09 1.56349e-09 3.7471e-09 3.75946e-09 2.70649e-09 2.16748e-09 2.1738e-09 1.5635e-09 -7.73091 5.47488 -0.417314 2.16749e-09 2.17381e-09 1.56348e-09 -2.90554 0.965183 -0.102902 2.16748e-09 2.1738e-09 1.56349e-09 -10.2786 0.731801 -0.0259123 2.16748e-09 2.1738e-09 1.56348e-09 -2.22167 -0.733487 0.20892 -2.03217e-16 0.0 -3.88251e-19 -23.1448 -48.688 -0.385225 -0.0744765 11.1578 -0.284821 -1.69624 -3.87351 -22.9971 2.03217e-16 0.0 3.88251e-19 6.19551 -9.6564 -18.9655 0.12137 24.4969 -0.592598 -2.17423 -21.694 -4.93653
1.50748 77.2354 98.1716 184.958 -15.9395 -165.917 -12.1574 -24.3845 -11.1367 5.99318 16.0205 -3.23192 1.00366 21.3798 -9.21127 9.54428 -3.24337 -23.2548 -0.0 0.0 0.0 -0.0 0.0 0.0 -2.37837e-13 6.08372e-14 5.67083e-13 86.558 4.05418 -20.0323 -14.1775 -7.09864 25.9119 -0.00324072 -1.63296 -0.22956 2.55251e-09 7.00295e-09 1.28613e-09 4.40074e-09 1.2123e-08 2.22903e-09 2.55251e-09 7.00295e-09 1.28611e-09 7.73091 5.47488 0.417314 2.55251e-09 7.00295e-09 1.28613e-09 2.90554 0.965183 0.102902 2.55251e-09 7.00295e-09 1.28613e-09 10.2786 0.731801 0.0259123 2.5525e-09 7.00295e-09 1.28614e-09 2.22167 -0.733487 -0.20892 -2.37877e-13 6.08065e-14 5.66821e-13 -66.0764 30.0965 5.6614 15.4034 -8.14404 -28.4238 0.00504715 -2.01006 0.282616 7.36825e-10 1.53571e-09 2.83826e-09 1.27354e-09 2.65278e-09 4.91081e-09 7.36825e-10 1.53571e-09 2.83827e-09 -7.73091 5.47488 -0.417314 7.3683e-10 1.53572e-09 2.83826e-09 -2.90554 0.965183 -0.102902 7.36819e-10 1.53572e-09 2.83826e-09 -10.2786 0.731801 -0.0259123 7.36825e-10 1.53572e-09 2.83826e-09 -2.22167 -0.733487 0.20892 -2.03217e-16 0.0 -3.88251e-19 -23.0109 -48.4212 -0.424131 -0.0756199 11.1209 -0.295325 -1.53463 -3.56701 -22.9755 2.03217e-16 0.0 3.88251e-19 6.76449 -9.32104 -18.952 0.121596 24.5524 -0.598079 -2.32321 -21.7939 -5.25477
